<svg xmlns="http://www.w3.org/2000/svg" viewBox="0 0 97.88 95.04"><title>Asset 1</title><g id="Layer_2" data-name="Layer 2"><g id="Layer_1-2" data-name="Layer 1"><path d="M95,22.49,84.91,18.26l-.37-.83a10.71,10.71,0,0,0-8.71-6.23l-1.48-.14-3.3-8.92A2.5,2.5,0,0,0,67.84.66a2.44,2.44,0,0,0-1,.69c-5.09,5.74-5.91,11.12-6,13.48A32,32,0,0,0,57.13,20a2.5,2.5,0,0,0,4.29,2.54,25.86,25.86,0,0,1,3.7-4.95,2.59,2.59,0,0,0,.71-2A13.51,13.51,0,0,1,68,8.24l2.22,6a2.49,2.49,0,0,0,2.11,1.62l3,.29A5.71,5.71,0,0,1,80,19.49l.78,1.73a2.5,2.5,0,0,0,1.31,1.27L92.88,27l-1.15,1.24a11,11,0,0,1-6.64,3.42h-.35a12,12,0,0,1-5.23-.46L75.71,30a2.51,2.51,0,0,0-3.15,1.62,2.47,2.47,0,0,0,.2,2c.32.59.61,1.18.88,1.79a10.83,10.83,0,0,1-9.37-1.81l-8.2-6.09a29.73,29.73,0,0,0-18.32-6.36H34.19a2.54,2.54,0,0,1-2.54-2.54h0v-.2A2.4,2.4,0,0,1,34.05,16h11a8,8,0,0,0,0-16H18.9a2.5,2.5,0,0,0,0,5H45.05a3,3,0,0,1,0,6h-11a7.39,7.39,0,0,0-7.4,7.39v.15a7.55,7.55,0,0,0,7.54,7.54h3.56a24.68,24.68,0,0,1,14.4,4.7,6.31,6.31,0,0,1-5.9,4.09H15.52a9.39,9.39,0,0,1-2.94-.38,10.5,10.5,0,0,1-7.22-13A10.83,10.83,0,0,1,6,19.86a2.5,2.5,0,0,0-4.5-2.14A15.64,15.64,0,0,0,4.25,35.07a15.34,15.34,0,0,0,4.67,3.35A28.33,28.33,0,0,0,6.92,62L3.43,68.27a17.85,17.85,0,0,0-1.6,13.22L4,89.8A6.91,6.91,0,0,0,10.64,95h.07a6.81,6.81,0,0,0,6.75-6.85,7,7,0,0,0-.23-1.7L15,78l8.58-4.37a14.33,14.33,0,0,0,7-7.88l1.23-3.37.08.14,4.66,6a5.1,5.1,0,0,1-.14,6.36l-3.29,3.9a2.49,2.49,0,0,0-.46,2.4l3.43,10.32a2.5,2.5,0,0,0,4.74-1.58l-3-9,2.38-2.83a10.12,10.12,0,0,0,.3-12.64l-2.14-2.77,18.39,3.62L60.19,89a6.46,6.46,0,0,0,6.22,5.55h0a6.37,6.37,0,0,0,6.33-5.83l1.44-18a34.68,34.68,0,0,1,1.93-9l7.4,7.77A4.41,4.41,0,0,1,84,74.92l-5.1,7.48A2.5,2.5,0,1,0,83,85.22l5.1-7.48a9.43,9.43,0,0,0-1-11.75l-8.88-9.31a28.9,28.9,0,0,0,1-20.27,17.06,17.06,0,0,0,6,.28h.35a16.05,16.05,0,0,0,9.66-5l1.29-1.39a4.86,4.86,0,0,0-.15-6.87A4.92,4.92,0,0,0,95,22.49ZM69.24,70.27l-1.44,18a1.34,1.34,0,0,1-1.35,1.23h0a1.46,1.46,0,0,1-1.31-1.3L61.42,63.84a2.5,2.5,0,0,0-2-2.08L31,56.16a2.49,2.49,0,0,0-2.83,1.6L25.87,64a9.34,9.34,0,0,1-4.55,5.14L11,74.49A2.49,2.49,0,0,0,9.7,77.35l2.75,10.44A1.8,1.8,0,0,1,11.17,90a1.74,1.74,0,0,1-.45.06,1.92,1.92,0,0,1-1.85-1.56l-2.2-8.31a12.85,12.85,0,0,1,1.15-9.51l4-7.33a2.69,2.69,0,0,0,.09-2.22,23.33,23.33,0,0,1,2-21.31c.53.06,1.06.09,1.59.1H46.23a11.28,11.28,0,0,0,10-6l5,3.78a15.66,15.66,0,0,0,14,2.5,23.84,23.84,0,0,1-1.92,15.5A40.09,40.09,0,0,0,69.24,70.27Z"/></g></g></svg>